<?xml version="1.0" encoding="UTF-8" standalone="no"?>
<!-- Generator: Adobe Illustrator 24.2.3, SVG Export Plug-In . SVG Version: 6.00 Build 0)  -->

<svg
   xmlns:dc="http://purl.org/dc/elements/1.1/"
   xmlns:cc="http://creativecommons.org/ns#"
   xmlns:rdf="http://www.w3.org/1999/02/22-rdf-syntax-ns#"
   xmlns:svg="http://www.w3.org/2000/svg"
   xmlns="http://www.w3.org/2000/svg"
   xmlns:sodipodi="http://sodipodi.sourceforge.net/DTD/sodipodi-0.dtd"
   xmlns:inkscape="http://www.inkscape.org/namespaces/inkscape"
   version="1.1"
   x="0px"
   y="0px"
   viewBox="0 0 256.70002 46.599998"
   xml:space="preserve"
   id="svg191"
   sodipodi:docname="logo.svg"
   width="256.70001"
   height="46.599998"
   inkscape:version="0.92.5 (2060ec1f9f, 2020-04-08)"><metadata
   id="metadata197"><rdf:RDF><cc:Work
       rdf:about=""><dc:format>image/svg+xml</dc:format><dc:type
         rdf:resource="http://purl.org/dc/dcmitype/StillImage" /><dc:title></dc:title></cc:Work></rdf:RDF></metadata><defs
   id="defs195" /><sodipodi:namedview
   pagecolor="#ffffff"
   bordercolor="#666666"
   borderopacity="1"
   objecttolerance="10"
   gridtolerance="10"
   guidetolerance="10"
   inkscape:pageopacity="0"
   inkscape:pageshadow="2"
   inkscape:window-width="1312"
   inkscape:window-height="870"
   id="namedview193"
   showgrid="false"
   fit-margin-top="0"
   fit-margin-left="0"
   fit-margin-right="0"
   fit-margin-bottom="0"
   inkscape:zoom="1.2224518"
   inkscape:cx="124.4"
   inkscape:cy="24.55"
   inkscape:window-x="1160"
   inkscape:window-y="892"
   inkscape:window-maximized="0"
   inkscape:current-layer="svg191" />
<style
   type="text/css"
   id="style2">
	.st0{display:none;}
	.st1{display:inline;fill:#1B3764;}
	.st2{display:inline;opacity:0.4;fill:url(#SVGID_1_);}
	.st3{display:inline;opacity:0.4;fill:url(#SVGID_2_);}
	.st4{display:inline;fill:url(#SVGID_3_);}
	.st5{display:none;opacity:0.8;fill:url(#SVGID_4_);}
	.st6{display:none;opacity:0.8;fill:url(#SVGID_5_);}
	.st7{display:none;fill:url(#SVGID_6_);}
	.st8{fill:#1B3764;}
	.st9{display:none;fill:url(#SVGID_7_);}
	.st10{display:none;fill:#3ABFEF;}
	.st11{fill:#0084B4;}
	.st12{display:none;fill:#FFFFFF;}
	.st13{display:none;fill:#1B3764;}
	.st14{font-family:'FrutigerLTStd-Light';}
	.st15{font-size:36px;}
	.st16{font-family:'Roboto-Regular';}
</style>
<g
   id="Layer_1"
   transform="translate(-20.8,-14.2)">
	<g
   class="st0"
   id="g26"
   style="display:none">
		<path
   class="st1"
   d="m 87.1,28.6 h -7.8 v -3.2 h 19.2 v 3.2 h -7.8 v 22 h -3.6 z"
   id="path4"
   inkscape:connector-curvature="0"
   style="display:inline;fill:#1b3764" />
		<path
   class="st1"
   d="m 102.1,25.4 h 3.6 v 25.1 h -3.6 z"
   id="path6"
   inkscape:connector-curvature="0"
   style="display:inline;fill:#1b3764" />
		<path
   class="st1"
   d="m 133.6,29.2 c -1.8,-0.7 -2.8,-1 -4.7,-1 -2,0 -4.4,0.7 -4.4,3.3 0,4.8 10.8,3.7 10.8,12 0,5.4 -4.1,7.5 -9.2,7.5 -1.8,0 -3.5,-0.5 -5.1,-1 l 0.4,-3.3 c 1.2,0.5 3.4,1.2 5.2,1.2 2.1,0 4.9,-1.2 4.9,-4.1 0,-5.6 -10.8,-4.1 -10.8,-11.9 0,-4.5 3.5,-6.8 8.1,-6.8 1.7,0 3.6,0.3 5.4,0.9 z"
   id="path8"
   inkscape:connector-curvature="0"
   style="display:inline;fill:#1b3764" />
		<path
   class="st1"
   d="m 148,31.8 c 5.6,0 9.3,4 9.3,9.6 0,5.3 -3.8,9.6 -9.3,9.6 -5.5,0 -9.4,-4.4 -9.4,-9.6 0,-5.6 3.7,-9.6 9.4,-9.6 z m 0,16.5 c 4,0 5.7,-3.6 5.7,-6.9 0,-3.5 -2.1,-6.9 -5.7,-6.9 -3.6,0 -5.8,3.4 -5.8,6.9 0,3.3 1.8,6.9 5.8,6.9 z"
   id="path10"
   inkscape:connector-curvature="0"
   style="display:inline;fill:#1b3764" />
		<path
   class="st1"
   d="m 162.3,23.6 h 3.4 v 27 h -3.4 z"
   id="path12"
   inkscape:connector-curvature="0"
   style="display:inline;fill:#1b3764" />
		<path
   class="st1"
   d="m 188.1,50.6 h -3.3 v -2.9 h -0.1 c -1,2.1 -3.5,3.3 -6,3.3 -4.8,0 -6.9,-3 -6.9,-7.9 V 32.2 h 3.4 v 9.5 c 0,4.3 0.9,6.4 3.9,6.6 3.9,0 5.6,-3.1 5.6,-7.6 v -8.5 h 3.4 z"
   id="path14"
   inkscape:connector-curvature="0"
   style="display:inline;fill:#1b3764" />
		<path
   class="st1"
   d="m 203.6,35 h -4.9 v 10 c 0,2.1 1.3,3.3 2.8,3.3 1,0 1.8,-0.3 2.3,-0.6 v 2.9 c -0.8,0.2 -1.8,0.5 -2.9,0.5 -3.5,0 -5.7,-1.7 -5.7,-5.3 V 35 h -4.1 v -2.7 h 4.1 V 28 l 3.4,-1.1 v 5.3 h 4.9 V 35 Z"
   id="path16"
   inkscape:connector-curvature="0"
   style="display:inline;fill:#1b3764" />
		<path
   class="st1"
   d="M 211.9,28.1 H 208 v -3.8 h 3.8 v 3.8 z m -3.6,4.1 h 3.4 v 18.4 h -3.4 z"
   id="path18"
   inkscape:connector-curvature="0"
   style="display:inline;fill:#1b3764" />
		<path
   class="st1"
   d="m 226,31.8 c 5.6,0 9.3,4 9.3,9.6 0,5.3 -3.8,9.6 -9.3,9.6 -5.5,0 -9.4,-4.4 -9.4,-9.6 0,-5.6 3.8,-9.6 9.4,-9.6 z m 0,16.5 c 4,0 5.7,-3.6 5.7,-6.9 0,-3.5 -2.1,-6.9 -5.7,-6.9 -3.6,0 -5.8,3.4 -5.8,6.9 0,3.3 1.8,6.9 5.8,6.9 z"
   id="path20"
   inkscape:connector-curvature="0"
   style="display:inline;fill:#1b3764" />
		<path
   class="st1"
   d="m 239.8,32.2 h 3.3 v 2.9 h 0.1 c 1,-2.1 3.5,-3.3 6,-3.3 4.8,0 6.9,3 6.9,7.9 v 10.9 h -3.4 v -9.5 c 0,-4.3 -0.9,-6.4 -3.9,-6.6 -3.9,0 -5.6,3.1 -5.6,7.6 v 8.5 h -3.4 z"
   id="path22"
   inkscape:connector-curvature="0"
   style="display:inline;fill:#1b3764" />
		<path
   class="st1"
   d="m 260.5,47 c 1.3,0.9 3.2,1.3 4.2,1.3 1.5,0 3.5,-0.6 3.5,-2.6 0,-3.3 -8,-3.1 -8,-8.2 0,-3.8 2.8,-5.7 6.5,-5.7 1.6,0 2.9,0.3 4.2,0.7 l -0.3,3 c -0.8,-0.5 -2.8,-0.9 -3.6,-0.9 -1.7,0 -3.2,0.7 -3.2,2.2 0,3.7 8,2.7 8,8.5 0,3.9 -3.1,5.7 -6.4,5.7 -1.7,0 -3.5,-0.2 -5,-1 z"
   id="path24"
   inkscape:connector-curvature="0"
   style="display:inline;fill:#1b3764" />
	</g>
	<g
   id="g159">
		<g
   class="st0"
   id="g91"
   style="display:none">
			<radialGradient
   id="SVGID_1_"
   cx="44.139198"
   cy="37.515999"
   r="19.6092"
   gradientUnits="userSpaceOnUse">
				<stop
   offset="0"
   style="stop-color:#FFFFFF"
   id="stop28" />
				<stop
   offset="0.1205"
   style="stop-color:#FBFEFF"
   id="stop30" />
				<stop
   offset="0.2454"
   style="stop-color:#EEFAFE"
   id="stop32" />
				<stop
   offset="0.3724"
   style="stop-color:#DAF3FD"
   id="stop34" />
				<stop
   offset="0.5008"
   style="stop-color:#BCEAFB"
   id="stop36" />
				<stop
   offset="0.6304"
   style="stop-color:#97DEF8"
   id="stop38" />
				<stop
   offset="0.761"
   style="stop-color:#69CFF6"
   id="stop40" />
				<stop
   offset="0.8898"
   style="stop-color:#34BEF2"
   id="stop42" />
				<stop
   offset="1"
   style="stop-color:#00AEEF"
   id="stop44" />
			</radialGradient>
			<ellipse
   class="st2"
   cx="44.099998"
   cy="37.5"
   rx="22.700001"
   ry="15.9"
   id="ellipse47"
   style="display:inline;opacity:0.4;fill:url(#SVGID_1_)" />
			
				<radialGradient
   id="SVGID_2_"
   cx="148.9227"
   cy="-53.855499"
   r="19.6092"
   gradientTransform="rotate(-90,142.21675,44.22205)"
   gradientUnits="userSpaceOnUse">
				<stop
   offset="0"
   style="stop-color:#FFFFFF"
   id="stop49" />
				<stop
   offset="0.1143"
   style="stop-color:#FBFEFF"
   id="stop51" />
				<stop
   offset="0.2385"
   style="stop-color:#EEF9FE"
   id="stop53" />
				<stop
   offset="0.3675"
   style="stop-color:#D8F3FD"
   id="stop55" />
				<stop
   offset="0.4997"
   style="stop-color:#B9E9FB"
   id="stop57" />
				<stop
   offset="0.6346"
   style="stop-color:#92DCF8"
   id="stop59" />
				<stop
   offset="0.7715"
   style="stop-color:#62CDF5"
   id="stop61" />
				<stop
   offset="0.9074"
   style="stop-color:#2ABBF2"
   id="stop63" />
				<stop
   offset="1"
   style="stop-color:#00AEEF"
   id="stop65" />
			</radialGradient>
			<ellipse
   class="st3"
   cx="44.099998"
   cy="37.5"
   rx="15.9"
   ry="22.700001"
   id="ellipse68"
   style="display:inline;opacity:0.4;fill:url(#SVGID_2_)" />
			<radialGradient
   id="SVGID_3_"
   cx="44.139198"
   cy="37.515999"
   r="15.8716"
   gradientUnits="userSpaceOnUse">
				<stop
   offset="0"
   style="stop-color:#FFFFFF"
   id="stop70" />
				<stop
   offset="0.1143"
   style="stop-color:#FBFEFF"
   id="stop72" />
				<stop
   offset="0.2385"
   style="stop-color:#EEF9FE"
   id="stop74" />
				<stop
   offset="0.3675"
   style="stop-color:#D8F3FD"
   id="stop76" />
				<stop
   offset="0.4997"
   style="stop-color:#B9E9FB"
   id="stop78" />
				<stop
   offset="0.6346"
   style="stop-color:#92DCF8"
   id="stop80" />
				<stop
   offset="0.7715"
   style="stop-color:#62CDF5"
   id="stop82" />
				<stop
   offset="0.9074"
   style="stop-color:#2ABBF2"
   id="stop84" />
				<stop
   offset="1"
   style="stop-color:#00AEEF"
   id="stop86" />
			</radialGradient>
			<path
   class="st4"
   d="m 31.1,24.5 c -1.8,3.7 -2.9,8.2 -2.9,13 0,4.8 1.1,9.3 2.9,13 3.7,1.8 8.2,2.9 13,2.9 4.8,0 9.3,-1.1 13,-2.9 1.8,-3.7 2.9,-8.2 2.9,-13 0,-4.8 -1.1,-9.3 -2.9,-13 -3.7,-1.8 -8.2,-2.9 -13,-2.9 -4.8,0 -9.3,1.1 -13,2.9 z"
   id="path89"
   inkscape:connector-curvature="0"
   style="display:inline;fill:url(#SVGID_3_)" />
		</g>
		<g
   id="g114">
			<radialGradient
   id="SVGID_4_"
   cx="44.139198"
   cy="37.515999"
   r="19.6092"
   gradientUnits="userSpaceOnUse">
				<stop
   offset="0"
   style="stop-color:#00AEEF;stop-opacity:0.2"
   id="stop93" />
				<stop
   offset="1"
   style="stop-color:#1B3764"
   id="stop95" />
			</radialGradient>
			<ellipse
   class="st5"
   cx="44.099998"
   cy="37.5"
   rx="22.700001"
   ry="15.9"
   id="ellipse98"
   style="display:none;opacity:0.8;fill:url(#SVGID_4_)" />
			
				<radialGradient
   id="SVGID_5_"
   cx="148.9227"
   cy="-53.855499"
   r="19.6092"
   gradientTransform="rotate(-90,142.21675,44.22205)"
   gradientUnits="userSpaceOnUse">
				<stop
   offset="0"
   style="stop-color:#00AEEF;stop-opacity:0.2"
   id="stop100" />
				<stop
   offset="1"
   style="stop-color:#1B3764"
   id="stop102" />
			</radialGradient>
			<ellipse
   class="st6"
   cx="44.099998"
   cy="37.5"
   rx="15.9"
   ry="22.700001"
   id="ellipse105"
   style="display:none;opacity:0.8;fill:url(#SVGID_5_)" />
			<radialGradient
   id="SVGID_6_"
   cx="44.139198"
   cy="37.515999"
   r="15.8716"
   gradientUnits="userSpaceOnUse">
				<stop
   offset="0"
   style="stop-color:#FFFFFF;stop-opacity:0.3"
   id="stop107" />
				<stop
   offset="1"
   style="stop-color:#1B3764"
   id="stop109" />
			</radialGradient>
			<path
   class="st7"
   d="m 31.1,24.5 c -1.8,3.7 -2.9,8.2 -2.9,13 0,4.8 1.1,9.3 2.9,13 3.7,1.8 8.2,2.9 13,2.9 4.8,0 9.3,-1.1 13,-2.9 1.8,-3.7 2.9,-8.2 2.9,-13 0,-4.8 -1.1,-9.3 -2.9,-13 -3.7,-1.8 -8.2,-2.9 -13,-2.9 -4.8,0 -9.3,1.1 -13,2.9 z"
   id="path112"
   inkscape:connector-curvature="0"
   style="display:none;fill:url(#SVGID_6_)" />
		</g>
		<g
   class="st0"
   id="g124"
   style="display:none">
			<path
   class="st1"
   d="m 66.9,37.5 c 0,-5.4 -3.8,-10.1 -9.7,-13 1.8,3.7 2.9,8.2 2.9,13 0,4.8 -1.1,9.3 -2.9,13 5.8,-2.8 9.7,-7.6 9.7,-13 z"
   id="path116"
   inkscape:connector-curvature="0"
   style="display:inline;fill:#1b3764" />
			<path
   class="st1"
   d="m 31.1,24.5 c -5.9,2.9 -9.7,7.6 -9.7,13 0,5.4 3.8,10.1 9.7,13 -1.8,-3.7 -2.9,-8.2 -2.9,-13 0,-4.8 1.1,-9.3 2.9,-13 z"
   id="path118"
   inkscape:connector-curvature="0"
   style="display:inline;fill:#1b3764" />
			<path
   class="st1"
   d="m 31.1,50.5 c 2.9,5.9 7.6,9.7 13,9.7 5.4,0 10.1,-3.8 13,-9.7 -3.7,1.8 -8.2,2.9 -13,2.9 -4.8,0 -9.3,-1.1 -13,-2.9 z"
   id="path120"
   inkscape:connector-curvature="0"
   style="display:inline;fill:#1b3764" />
			<path
   class="st1"
   d="m 57.2,24.5 c -2.9,-5.9 -7.6,-9.7 -13,-9.7 -5.4,0 -10.1,3.8 -13,9.7 3.7,-1.8 8.2,-2.9 13,-2.9 4.8,0 9.3,1.1 13,2.9 z"
   id="path122"
   inkscape:connector-curvature="0"
   style="display:inline;fill:#1b3764" />
		</g>
		<g
   id="g134">
			<path
   class="st8"
   d="m 67.4,37.5 c 0,-5.4 -4.3,-10.1 -10.8,-13 2,3.7 3.2,8.2 3.2,13 0,4.8 -1.2,9.3 -3.2,13 6.5,-2.8 10.8,-7.6 10.8,-13 z"
   id="path126"
   inkscape:connector-curvature="0"
   style="fill:#1b3764" />
			<path
   class="st8"
   d="m 31.6,24.5 c -6.5,2.9 -10.8,7.6 -10.8,13 0,5.4 4.3,10.1 10.8,13 -2,-3.7 -3.2,-8.2 -3.2,-13 0,-4.8 1.3,-9.3 3.2,-13 z"
   id="path128"
   inkscape:connector-curvature="0"
   style="fill:#1b3764" />
			<path
   class="st8"
   d="m 31.1,50 c 2.9,6.5 7.6,10.8 13,10.8 5.4,0 10.1,-4.3 13,-10.8 -3.7,2 -8.2,3.2 -13,3.2 -4.8,0 -9.3,-1.2 -13,-3.2 z"
   id="path130"
   inkscape:connector-curvature="0"
   style="fill:#1b3764" />
			<path
   class="st8"
   d="M 57.2,25 C 54.3,18.5 49.6,14.2 44.2,14.2 38.8,14.2 34,18.5 31.1,25 c 3.7,-2 8.2,-3.2 13,-3.2 4.8,0 9.4,1.2 13.1,3.2 z"
   id="path132"
   inkscape:connector-curvature="0"
   style="fill:#1b3764" />
		</g>
		<linearGradient
   id="SVGID_7_"
   gradientUnits="userSpaceOnUse"
   x1="49.0369"
   y1="34.633598"
   x2="55.038601"
   y2="28.632">
			<stop
   offset="0"
   style="stop-color:#F9ED32"
   id="stop136" />
			<stop
   offset="8.489490e-02"
   style="stop-color:#F8E53E"
   id="stop138" />
			<stop
   offset="0.2235"
   style="stop-color:#F6D556"
   id="stop140" />
			<stop
   offset="0.3985"
   style="stop-color:#F2BA70"
   id="stop142" />
			<stop
   offset="0.6031"
   style="stop-color:#EF9481"
   id="stop144" />
			<stop
   offset="0.8298"
   style="stop-color:#ED608B"
   id="stop146" />
			<stop
   offset="1"
   style="stop-color:#EC008C"
   id="stop148" />
		</linearGradient>
		<ellipse
   class="st9"
   cx="52"
   cy="31.6"
   rx="3.5"
   ry="4.9000001"
   id="ellipse151"
   style="display:none;fill:url(#SVGID_7_)" />
		<ellipse
   class="st10"
   cx="52"
   cy="31.6"
   rx="3.5"
   ry="4.9000001"
   id="ellipse153"
   style="display:none;fill:#3abfef" />
		<circle
   class="st11"
   cx="52"
   cy="31.6"
   r="3.5"
   id="circle155"
   style="fill:#0084b4" />
		<ellipse
   class="st12"
   cx="52"
   cy="31.6"
   rx="3.5"
   ry="4.9000001"
   id="ellipse157"
   style="display:none;fill:#ffffff" />
	</g>
</g>
<g
   id="Layer_2"
   transform="translate(-20.8,-14.2)">
	<text
   transform="translate(81.1239,51.5996)"
   class="st13 st14 st15"
   id="text162"
   style="font-size:36px;font-family:FrutigerLTStd-Light;display:none;fill:#1b3764">TI Solutions</text>

	<g
   id="g186">
		<path
   class="st8"
   d="m 84.9,51.6 v -1.5 l 2.9,-0.2 V 27.7 h -7.2 l -0.2,3.9 H 78.7 V 26 H 99 v 5.6 h -1.7 l -0.2,-3.9 h -7.2 v 22.1 l 2.9,0.2 v 1.5 h -7.9 z"
   id="path164"
   inkscape:connector-curvature="0"
   style="fill:#1b3764" />
		<path
   class="st8"
   d="m 102.3,51.6 v -1.5 l 2.9,-0.2 V 27.8 l -2.9,-0.2 V 26 h 7.8 v 1.5 l -2.9,0.2 v 22.1 l 2.9,0.2 v 1.5 h -7.8 z"
   id="path166"
   inkscape:connector-curvature="0"
   style="fill:#1b3764" />
		<path
   class="st8"
   d="m 130.7,52 c -1.5,0 -2.9,-0.2 -4.4,-0.7 -1.5,-0.5 -2.9,-1.1 -4.2,-2.1 v -5 h 1.8 l 0.3,4 c 1,0.6 2.1,1.1 3.2,1.4 1.1,0.3 2.2,0.5 3.4,0.5 1.3,0 2.5,-0.2 3.5,-0.6 1,-0.4 1.8,-1 2.3,-1.7 0.5,-0.7 0.8,-1.6 0.8,-2.6 0,-0.9 -0.2,-1.8 -0.7,-2.5 -0.5,-0.7 -1.2,-1.3 -2.2,-1.9 -1,-0.6 -2.4,-1 -4.1,-1.5 -1.9,-0.5 -3.4,-1 -4.6,-1.7 -1.2,-0.6 -2,-1.4 -2.6,-2.3 -0.6,-0.9 -0.8,-2 -0.8,-3.2 0,-1.3 0.3,-2.4 1,-3.4 0.7,-1 1.6,-1.7 2.9,-2.3 1.3,-0.6 2.7,-0.8 4.3,-0.8 1.7,0 3.3,0.3 4.6,0.8 1.3,0.5 2.5,1.2 3.4,2 V 33 h -1.7 l -0.3,-3.6 C 135.9,28.8 135,28.3 134,28 c -1,-0.3 -2.2,-0.5 -3.4,-0.5 -1.3,0 -2.3,0.2 -3.2,0.6 -0.9,0.4 -1.6,1 -2.1,1.7 -0.5,0.7 -0.7,1.5 -0.7,2.4 0,0.9 0.2,1.6 0.6,2.3 0.4,0.7 1.1,1.2 2,1.7 0.9,0.5 2.3,1 4,1.4 2.8,0.7 4.9,1.7 6.3,2.9 1.4,1.2 2.1,2.8 2.1,4.8 0,1.4 -0.4,2.5 -1.1,3.6 -0.7,1.1 -1.8,1.8 -3.1,2.4 -1.3,0.6 -2.9,0.7 -4.7,0.7 z"
   id="path168"
   inkscape:connector-curvature="0"
   style="fill:#1b3764" />
		<path
   class="st8"
   d="m 150.9,52 c -1.7,0 -3.2,-0.4 -4.5,-1.2 -1.3,-0.8 -2.2,-1.9 -2.9,-3.4 -0.7,-1.5 -1,-3.1 -1,-5 v -0.6 c 0,-1.9 0.3,-3.5 1,-5 0.7,-1.4 1.7,-2.6 2.9,-3.4 1.2,-0.8 2.7,-1.2 4.4,-1.2 1.7,0 3.2,0.4 4.4,1.2 1.2,0.8 2.2,1.9 2.9,3.4 0.7,1.4 1,3.1 1,5 v 0.6 c 0,1.9 -0.3,3.5 -1,5 -0.7,1.5 -1.7,2.6 -2.9,3.4 -1.2,0.8 -2.6,1.2 -4.3,1.2 z m 0,-1.8 c 1.3,0 2.4,-0.3 3.4,-1 1,-0.7 1.7,-1.6 2.2,-2.8 0.5,-1.2 0.8,-2.5 0.8,-4 v -0.6 c 0,-1.5 -0.3,-2.8 -0.8,-4 -0.5,-1.2 -1.2,-2.1 -2.2,-2.8 -1,-0.7 -2.1,-1 -3.4,-1 -1.3,0 -2.4,0.3 -3.4,1 -1,0.7 -1.7,1.6 -2.2,2.8 -0.5,1.2 -0.7,2.5 -0.7,4 v 0.6 c 0,1.5 0.2,2.8 0.7,4 0.5,1.2 1.2,2.1 2.2,2.8 1,0.7 2.1,1 3.4,1 z"
   id="path170"
   inkscape:connector-curvature="0"
   style="fill:#1b3764" />
		<path
   class="st8"
   d="m 161.9,51.6 v -1.5 l 2.9,-0.2 V 26 l -2.9,-0.2 v -1.5 h 5 V 50 l 2.9,0.2 v 1.5 h -7.9 z"
   id="path172"
   inkscape:connector-curvature="0"
   style="fill:#1b3764" />
		<path
   class="st8"
   d="m 181.8,52 c -2,0 -3.5,-0.7 -4.6,-2 -1.1,-1.3 -1.7,-3.5 -1.7,-6.3 v -9.2 l -2.4,-0.2 v -1.5 h 2.4 2.1 v 11.1 c 0,2.3 0.4,4 1.1,5 0.7,1 1.9,1.5 3.3,1.5 1.6,0 2.9,-0.4 3.8,-1.1 0.9,-0.7 1.5,-1.8 1.9,-3.1 V 34.4 L 185,34.2 v -1.5 h 2.7 2.1 V 50 l 2.5,0.2 v 1.5 H 188 l -0.2,-3.1 c -0.6,1.1 -1.4,2 -2.4,2.6 -1,0.6 -2.2,0.8 -3.6,0.8 z"
   id="path174"
   inkscape:connector-curvature="0"
   style="fill:#1b3764" />
		<path
   class="st8"
   d="m 203,51.9 c -1.3,0 -2.4,-0.4 -3.1,-1.2 -0.7,-0.8 -1.1,-2.2 -1.1,-4 V 34.3 h -3.3 v -1.7 h 3.3 v -4.9 h 2.1 v 4.9 h 4.4 v 1.7 h -4.4 v 12.4 c 0,1.3 0.2,2.2 0.7,2.7 0.5,0.5 1.1,0.8 1.8,0.8 0.4,0 0.8,0 1.2,-0.1 0.4,-0.1 0.8,-0.1 1.2,-0.2 l 0.3,1.5 c -0.4,0.1 -0.9,0.2 -1.4,0.3 -0.5,0.1 -1.2,0.2 -1.7,0.2 z"
   id="path176"
   inkscape:connector-curvature="0"
   style="fill:#1b3764" />
		<path
   class="st8"
   d="m 209.7,51.6 v -1.5 l 2.9,-0.2 V 34.4 l -2.9,-0.2 v -1.5 h 5 V 50 l 2.9,0.2 v 1.5 h -7.9 z m 2.6,-24.4 v -3 h 2.4 v 3 z"
   id="path178"
   inkscape:connector-curvature="0"
   style="fill:#1b3764" />
		<path
   class="st8"
   d="m 229,52 c -1.7,0 -3.2,-0.4 -4.5,-1.2 -1.3,-0.8 -2.2,-1.9 -2.9,-3.4 -0.7,-1.5 -1,-3.1 -1,-5 v -0.6 c 0,-1.9 0.3,-3.5 1,-5 0.7,-1.4 1.7,-2.6 2.9,-3.4 1.2,-0.8 2.7,-1.2 4.4,-1.2 1.7,0 3.2,0.4 4.4,1.2 1.2,0.8 2.2,1.9 2.9,3.4 0.7,1.4 1,3.1 1,5 v 0.6 c 0,1.9 -0.3,3.5 -1,5 -0.7,1.5 -1.7,2.6 -2.9,3.4 -1.2,0.8 -2.6,1.2 -4.3,1.2 z m 0,-1.8 c 1.3,0 2.4,-0.3 3.4,-1 1,-0.7 1.7,-1.6 2.2,-2.8 0.5,-1.2 0.8,-2.5 0.8,-4 v -0.6 c 0,-1.5 -0.3,-2.8 -0.8,-4 -0.5,-1.2 -1.2,-2.1 -2.2,-2.8 -1,-0.7 -2.1,-1 -3.4,-1 -1.3,0 -2.4,0.3 -3.4,1 -1,0.7 -1.7,1.6 -2.2,2.8 -0.5,1.2 -0.7,2.5 -0.7,4 v 0.6 c 0,1.5 0.2,2.8 0.7,4 0.5,1.2 1.2,2.1 2.2,2.8 1,0.7 2.1,1 3.4,1 z"
   id="path180"
   inkscape:connector-curvature="0"
   style="fill:#1b3764" />
		<path
   class="st8"
   d="m 240.5,51.6 v -1.5 l 2.9,-0.2 V 34.4 l -2.9,-0.2 v -1.5 h 4.7 l 0.2,3.4 c 0.6,-1.2 1.4,-2.1 2.5,-2.8 1.1,-0.7 2.3,-1 3.7,-1 2.1,0 3.6,0.6 4.7,1.9 1.1,1.3 1.6,3.2 1.6,5.9 v 9.8 l 2.9,0.2 v 1.5 H 253 v -1.5 l 2.9,-0.2 v -9.8 c 0,-2.2 -0.4,-3.8 -1.2,-4.7 -0.8,-0.9 -2,-1.4 -3.5,-1.4 -1.6,0 -2.8,0.4 -3.7,1.3 -0.9,0.9 -1.5,2 -1.9,3.4 v 11 l 2.9,0.2 v 1.5 h -8 z"
   id="path182"
   inkscape:connector-curvature="0"
   style="fill:#1b3764" />
		<path
   class="st8"
   d="m 270.3,52 c -1.3,0 -2.6,-0.2 -3.7,-0.5 -1.1,-0.3 -2.2,-0.9 -3.2,-1.6 V 46 h 1.7 l 0.3,2.8 c 0.7,0.5 1.4,0.9 2.3,1.1 0.9,0.2 1.7,0.4 2.7,0.4 1.6,0 2.8,-0.3 3.6,-1 0.8,-0.7 1.2,-1.5 1.2,-2.5 0,-0.9 -0.4,-1.7 -1.1,-2.4 -0.7,-0.7 -2.1,-1.2 -4,-1.7 -2.3,-0.5 -3.9,-1.1 -4.9,-2 -1,-0.9 -1.5,-2 -1.5,-3.4 0,-1 0.3,-1.8 0.8,-2.6 0.5,-0.8 1.3,-1.4 2.3,-1.8 1,-0.4 2.2,-0.7 3.5,-0.7 1.4,0 2.6,0.2 3.6,0.6 1,0.4 1.9,0.9 2.7,1.6 l 0.1,3.9 H 275 l -0.2,-2.8 c -0.5,-0.5 -1.1,-0.9 -1.8,-1.2 -0.7,-0.3 -1.6,-0.4 -2.6,-0.4 -1.4,0 -2.5,0.3 -3.3,1 -0.8,0.7 -1.2,1.4 -1.2,2.3 0,0.6 0.1,1.1 0.4,1.5 0.3,0.4 0.7,0.8 1.4,1.2 0.7,0.4 1.7,0.7 3,1 2.4,0.5 4.1,1.3 5.2,2.2 1.1,0.9 1.6,2.1 1.6,3.6 0,1.5 -0.6,2.8 -1.8,3.8 -1.2,1 -3.1,1.5 -5.4,1.5 z"
   id="path184"
   inkscape:connector-curvature="0"
   style="fill:#1b3764" />
	</g>
	<text
   transform="translate(81.1239,51.5996)"
   class="st13 st16 st15"
   id="text188"
   style="font-size:36px;font-family:Roboto-Regular;display:none;fill:#1b3764">TI Solutions</text>

</g>
</svg>