<?xml version="1.0" encoding="UTF-8"?>
<svg id="Layer_2" data-name="Layer 2" xmlns="http://www.w3.org/2000/svg" viewBox="0 0 45.66 45.49">
  <defs>
    <style>
      .cls-1 {
        stroke: #293a61;
        stroke-miterlimit: 10;
        stroke-width: .25px;
      }

      .cls-1, .cls-2 {
        fill: #293a61;
      }

      .cls-2 {
        stroke-width: 0px;
      }
    </style>
  </defs>
  <g id="Layer_1-2" data-name="Layer 1">
    <g id="Layer_2-2" data-name="Layer 2">
      <g>
        <path class="cls-1" d="M12.08,28.25v-1.2l1.24-.24v-8.42h-2.29l-.17,1.45h-1.47v-2.96h9.84v2.96h-1.48l-.17-1.45h-2.29v8.42l1.24.24v1.2h-4.45Z"/>
        <path class="cls-1" d="M20.44,28.25v-1.2l1.24-.24v-8.49l-1.24-.23v-1.21h4.44v1.21l-1.23.23v8.49l1.23.24v1.2h-4.44Z"/>
        <path class="cls-1" d="M26.72,28.25v-1.2l1.24-.24v-8.49l-1.24-.23v-1.21h5.33c.85,0,1.58.15,2.18.44.61.3,1.07.71,1.39,1.24s.48,1.15.48,1.85-.16,1.33-.48,1.86-.79.94-1.39,1.23c-.61.29-1.33.44-2.18.44h-2.12v2.87l1.24.24v1.2s-4.45,0-4.45,0ZM29.93,22.41h2.12c.7,0,1.22-.19,1.57-.56.35-.37.52-.85.52-1.42s-.17-1.07-.52-1.45c-.35-.38-.87-.58-1.57-.58h-2.12v4.01Z"/>
      </g>
      <g>
        <path class="cls-2" d="M45.66,22.74c0-5.31-4.2-9.99-10.61-12.82,4.1,7.12,4.1,18.52,0,25.64,6.41-2.82,10.61-7.51,10.61-12.82Z"/>
        <path class="cls-2" d="M10.44,9.92c-13.92,5.58-13.92,20.06,0,25.64-4.11-7.12-4.11-18.52,0-25.64Z"/>
        <path class="cls-2" d="M9.92,35.05c5.58,13.92,20.06,13.92,25.64,0-7.12,4.1-18.52,4.1-25.64,0Z"/>
        <path class="cls-2" d="M35.56,10.44c-5.58-13.92-20.06-13.92-25.64,0,7.12-4.11,18.52-4.11,25.64,0Z"/>
      </g>
    </g>
  </g>
</svg>